<?xml version="1.0" encoding="UTF-8" standalone="no"?>
<!-- Created with Inkscape (http://www.inkscape.org/) -->

<svg
   xmlns:dc="http://purl.org/dc/elements/1.1/"
   xmlns:cc="http://creativecommons.org/ns#"
   xmlns:rdf="http://www.w3.org/1999/02/22-rdf-syntax-ns#"
   xmlns:svg="http://www.w3.org/2000/svg"
   xmlns="http://www.w3.org/2000/svg"
   xmlns:sodipodi="http://sodipodi.sourceforge.net/DTD/sodipodi-0.dtd"
   xmlns:inkscape="http://www.inkscape.org/namespaces/inkscape"
   width="92.710419mm"
   height="29.209999mm"
   viewBox="0 0 92.71042 29.209999"
   version="1.1"
   id="svg8"
   inkscape:version="0.92.4 (5da689c313, 2019-01-14)"
   sodipodi:docname="ic_works_with_fitbit.svg">
  <defs
     id="defs2">
    <clipPath
       id="clipPath831"
       clipPathUnits="userSpaceOnUse">
      <path
         inkscape:connector-curvature="0"
         id="path829"
         d="M 0,0 H 923.332 V 406 H 0 Z" />
    </clipPath>
    <clipPath
       id="clipPath895"
       clipPathUnits="userSpaceOnUse">
      <path
         inkscape:connector-curvature="0"
         id="path893"
         d="M 0,406 H 923.332 V 0 H 0 Z" />
    </clipPath>
    <clipPath
       id="clipPath927"
       clipPathUnits="userSpaceOnUse">
      <path
         inkscape:connector-curvature="0"
         id="path925"
         d="M 0,0 H 923.332 V 406 H 0 Z" />
    </clipPath>
    <clipPath
       id="clipPath971"
       clipPathUnits="userSpaceOnUse">
      <path
         inkscape:connector-curvature="0"
         id="path969"
         d="M 0,406 H 923.332 V 0 H 0 Z" />
    </clipPath>
  </defs>
  <sodipodi:namedview
     id="base"
     pagecolor="#ffffff"
     bordercolor="#666666"
     borderopacity="1.0"
     inkscape:pageopacity="0.0"
     inkscape:pageshadow="2"
     inkscape:zoom="0.98994949"
     inkscape:cx="195.26825"
     inkscape:cy="173.53763"
     inkscape:document-units="mm"
     inkscape:current-layer="layer1"
     showgrid="false"
     fit-margin-top="0"
     fit-margin-left="0"
     fit-margin-right="0"
     fit-margin-bottom="0"
     inkscape:window-width="1920"
     inkscape:window-height="1137"
     inkscape:window-x="-8"
     inkscape:window-y="-8"
     inkscape:window-maximized="1" />
  <metadata
     id="metadata5">
    <rdf:RDF>
      <cc:Work
         rdf:about="">
        <dc:format>image/svg+xml</dc:format>
        <dc:type
           rdf:resource="http://purl.org/dc/dcmitype/StillImage" />
        <dc:title></dc:title>
      </cc:Work>
    </rdf:RDF>
  </metadata>
  <g
     inkscape:label="Ebene 1"
     inkscape:groupmode="layer"
     id="layer1"
     transform="translate(-8.0181971,-176.56166)">
    <g
       transform="matrix(0.35277777,0,0,-0.35277777,-26.964693,266.05429)"
       inkscape:label="Works_With_Fitbit_Watches_badge_CMYK_No_Reg"
       id="g823">
      <g
         id="g825">
        <g
           clip-path="url(#clipPath831)"
           id="g827">
          <g
             transform="translate(358.3643,170.8799)"
             id="g833">
            <path
               inkscape:connector-curvature="0"
               id="path835"
               style="fill:#0c2735;fill-opacity:1;fill-rule:nonzero;stroke:none"
               d="m 0,0 h -255.6 c -1.98,0 -3.6,1.62 -3.6,3.6 v 75.6 c 0,1.98 1.62,3.6 3.6,3.6 L 0,82.8 c 1.98,0 3.601,-1.62 3.601,-3.6 V 3.6 C 3.601,1.62 1.98,0 0,0" />
          </g>
          <g
             transform="translate(99.1641,224.7119)"
             id="g837">
            <path
               inkscape:connector-curvature="0"
               id="path839"
               style="fill:#00a6b6;fill-opacity:1;fill-rule:nonzero;stroke:none"
               d="m 0,0 v 25.368 c 0,1.98 1.62,3.6 3.601,3.6 H 259.2 c 1.981,0 3.601,-1.62 3.601,-3.6 V -0.003 Z" />
          </g>
          <g
             transform="translate(821.5352,170.8799)"
             id="g841" />
          <g
             transform="translate(562.335,224.7119)"
             id="g845" />
          <g
             transform="translate(124.5391,199.6309)"
             id="g849">
            <path
               inkscape:connector-curvature="0"
               id="path851"
               style="fill:#ffffff;fill-opacity:1;fill-rule:nonzero;stroke:none"
               d="m 0,0 c -0.893,0 -1.615,-0.724 -1.615,-1.616 0,-0.892 0.722,-1.615 1.615,-1.615 0.893,0 1.615,0.723 1.615,1.615 C 1.615,-0.724 0.893,0 0,0 m 5.542,-5.437 c -0.995,0 -1.801,-0.806 -1.801,-1.8 0,-0.995 0.806,-1.802 1.801,-1.802 0.994,0 1.801,0.807 1.801,1.802 0,0.994 -0.807,1.8 -1.801,1.8 m 0,5.702 c -1.039,0 -1.881,-0.842 -1.881,-1.881 0,-1.038 0.842,-1.88 1.881,-1.88 1.038,0 1.88,0.842 1.88,1.88 0,1.039 -0.842,1.881 -1.88,1.881 m 0,5.543 c -0.995,0 -1.801,-0.807 -1.801,-1.801 0,-0.995 0.806,-1.801 1.801,-1.801 0.994,0 1.801,0.806 1.801,1.801 0,0.994 -0.807,1.801 -1.801,1.801 M 22.169,1.06 c -1.477,0 -2.675,-1.198 -2.675,-2.676 0,-1.477 1.198,-2.675 2.675,-2.675 1.477,0 2.676,1.198 2.676,2.675 0,1.478 -1.199,2.676 -2.676,2.676 m -5.615,-5.967 c -1.287,0 -2.331,-1.043 -2.331,-2.33 0,-1.288 1.044,-2.331 2.331,-2.331 1.287,0 2.33,1.043 2.33,2.331 0,1.287 -1.043,2.33 -2.33,2.33 m 0,5.701 c -1.331,0 -2.41,-1.079 -2.41,-2.41 0,-1.331 1.079,-2.41 2.41,-2.41 1.331,0 2.41,1.079 2.41,2.41 0,1.331 -1.079,2.41 -2.41,2.41 m 0,5.543 c -1.287,0 -2.331,-1.043 -2.331,-2.33 0,-1.287 1.044,-2.331 2.331,-2.331 1.287,0 2.33,1.044 2.33,2.331 0,1.287 -1.043,2.33 -2.33,2.33 m -5.471,-17.21 c -1.097,0 -1.986,-0.889 -1.986,-1.986 0,-1.097 0.889,-1.986 1.986,-1.986 1.098,0 1.986,0.889 1.986,1.986 0,1.097 -0.888,1.986 -1.986,1.986 m 0,5.702 c -1.141,0 -2.065,-0.927 -2.065,-2.066 0,-1.141 0.924,-2.066 2.065,-2.066 1.142,0 2.066,0.925 2.066,2.066 0,1.139 -0.924,2.066 -2.066,2.066 m 0,5.701 c -1.185,0 -2.145,-0.962 -2.145,-2.146 0,-1.184 0.96,-2.145 2.145,-2.145 1.186,0 2.146,0.961 2.146,2.145 0,1.184 -0.96,2.146 -2.146,2.146 m 0,5.543 c -1.141,0 -2.065,-0.925 -2.065,-2.066 0,-1.141 0.924,-2.067 2.065,-2.067 1.142,0 2.066,0.926 2.066,2.067 0,1.141 -0.924,2.066 -2.066,2.066 m 1.986,3.555 c 0,-1.097 -0.888,-1.986 -1.986,-1.986 -1.097,0 -1.986,0.889 -1.986,1.986 0,1.097 0.889,1.987 1.986,1.987 1.098,0 1.986,-0.89 1.986,-1.987" />
          </g>
          <g
             transform="translate(171.3936,201.498)"
             id="g853">
            <path
               inkscape:connector-curvature="0"
               id="path855"
               style="fill:#ffffff;fill-opacity:1;fill-rule:nonzero;stroke:none"
               d="m 0,0 h -1.687 c -0.193,0 -0.35,-0.156 -0.35,-0.349 v -14.029 c 0,-0.191 0.157,-0.349 0.35,-0.349 H 0 c 0.191,0 0.349,0.158 0.349,0.349 V -0.349 C 0.349,-0.156 0.191,0 0,0" />
          </g>
          <g
             transform="translate(170.5488,207.3931)"
             id="g857">
            <path
               inkscape:connector-curvature="0"
               id="path859"
               style="fill:#ffffff;fill-opacity:1;fill-rule:nonzero;stroke:none"
               d="m 0,0 c -0.891,0 -1.614,-0.725 -1.614,-1.616 0,-0.89 0.723,-1.615 1.614,-1.615 0.892,0 1.616,0.725 1.616,1.615 C 1.616,-0.725 0.892,0 0,0" />
          </g>
          <g
             transform="translate(207.418,201.498)"
             id="g861">
            <path
               inkscape:connector-curvature="0"
               id="path863"
               style="fill:#ffffff;fill-opacity:1;fill-rule:nonzero;stroke:none"
               d="m 0,0 h -1.687 c -0.193,0 -0.35,-0.156 -0.35,-0.349 v -14.029 c 0,-0.191 0.157,-0.349 0.35,-0.349 H 0 c 0.191,0 0.349,0.158 0.349,0.349 V -0.349 C 0.349,-0.156 0.191,0 0,0" />
          </g>
          <g
             transform="translate(206.5732,207.3926)"
             id="g865">
            <path
               inkscape:connector-curvature="0"
               id="path867"
               style="fill:#ffffff;fill-opacity:1;fill-rule:nonzero;stroke:none"
               d="m 0,0 c -0.884,0 -1.626,-0.725 -1.626,-1.615 0,-0.891 0.742,-1.615 1.626,-1.615 0.885,0 1.604,0.724 1.604,1.615 C 1.604,-0.725 0.885,0 0,0" />
          </g>
          <g
             transform="translate(183.626,201.498)"
             id="g869">
            <path
               inkscape:connector-curvature="0"
               id="path871"
               style="fill:#ffffff;fill-opacity:1;fill-rule:nonzero;stroke:none"
               d="m 0,0 h -3.598 v 5.405 c 0,0.192 -0.157,0.349 -0.348,0.349 h -1.688 c -0.192,0 -0.349,-0.157 -0.349,-0.349 V 0 h -1.81 c -0.192,0 -0.35,-0.156 -0.35,-0.349 v -1.688 c 0,-0.192 0.158,-0.349 0.35,-0.349 h 1.81 v -8.182 c 0,-2.487 1.671,-4.158 4.156,-4.158 H 0 c 0.192,0 0.349,0.159 0.349,0.35 v 1.688 c 0,0.191 -0.157,0.348 -0.349,0.348 h -1.615 c -1.167,0 -1.983,0.837 -1.983,2.036 v 7.918 H 0 c 0.192,0 0.349,0.157 0.349,0.349 v 1.688 C 0.349,-0.156 0.192,0 0,0" />
          </g>
          <g
             transform="translate(219.291,201.498)"
             id="g873">
            <path
               inkscape:connector-curvature="0"
               id="path875"
               style="fill:#ffffff;fill-opacity:1;fill-rule:nonzero;stroke:none"
               d="m 0,0 h -3.598 v 5.405 c 0,0.192 -0.157,0.349 -0.348,0.349 h -1.688 c -0.192,0 -0.349,-0.157 -0.349,-0.349 V 0 h -1.81 c -0.192,0 -0.35,-0.156 -0.35,-0.349 v -1.688 c 0,-0.192 0.158,-0.349 0.35,-0.349 h 1.81 v -8.182 c 0,-2.487 1.671,-4.158 4.156,-4.158 H 0 c 0.192,0 0.349,0.159 0.349,0.35 v 1.688 c 0,0.191 -0.157,0.348 -0.349,0.348 h -1.615 c -1.167,0 -1.983,0.837 -1.983,2.036 v 7.918 H 0 c 0.192,0 0.349,0.157 0.349,0.349 v 1.688 C 0.349,-0.156 0.192,0 0,0" />
          </g>
          <g
             transform="translate(165.3945,209.2593)"
             id="g877">
            <path
               inkscape:connector-curvature="0"
               id="path879"
               style="fill:#ffffff;fill-opacity:1;fill-rule:nonzero;stroke:none"
               d="m 0,0 h -1.838 c -2.49,0 -4.516,-2.026 -4.516,-4.517 v -3.244 h -1.81 c -0.192,0 -0.35,-0.157 -0.35,-0.349 v -1.687 c 0,-0.192 0.158,-0.349 0.35,-0.349 h 1.81 v -11.993 c 0,-0.193 0.157,-0.348 0.349,-0.348 h 1.688 c 0.191,0 0.348,0.155 0.348,0.348 v 11.993 H 0 c 0.192,0 0.349,0.157 0.349,0.349 v 1.687 c 0,0.192 -0.157,0.349 -0.349,0.349 h -3.969 v 3.244 c 0,1.216 0.853,2.132 1.982,2.132 H 0 c 0.192,0 0.349,0.156 0.349,0.349 v 1.687 C 0.349,-0.157 0.192,0 0,0" />
          </g>
          <g
             transform="translate(194.8057,188.6064)"
             id="g881">
            <path
               inkscape:connector-curvature="0"
               id="path883"
               style="fill:#ffffff;fill-opacity:1;fill-rule:nonzero;stroke:none"
               d="m 0,0 c -3.603,0 -4.886,2.854 -4.886,5.523 0,3.283 1.964,5.488 4.886,5.488 2.922,0 4.886,-2.205 4.886,-5.488 C 4.886,2.854 3.603,0 0,0 m 0,13.397 c -1.844,0 -3.772,-0.816 -4.885,-2.008 v 8.915 c 0,0.192 -0.157,0.349 -0.349,0.349 h -1.691 c -0.191,0 -0.348,-0.157 -0.348,-0.349 V 5.523 c 0,-5.464 3.653,-7.911 7.273,-7.911 3.62,0 7.273,2.447 7.273,7.911 0,2.263 -0.706,4.22 -2.042,5.662 C 3.908,12.612 2.051,13.397 0,13.397" />
          </g>
        </g>
      </g>
      <g
         transform="translate(235.1523,186.7725)"
         id="g885">
        <path
           inkscape:connector-curvature="0"
           id="path887"
           style="fill:#ffffff;fill-opacity:1;fill-rule:nonzero;stroke:none"
           d="m 0,0 -4.739,14.7 h 2.506 L 1.117,4.256 4.467,14.7 H 6.701 L 10.021,4.256 13.402,14.7 h 2.505 L 11.168,0 H 8.874 L 5.584,10.354 2.264,0 Z" />
      </g>
      <g
         id="g889">
        <g
           clip-path="url(#clipPath895)"
           id="g891">
          <g
             transform="translate(254.6211,194.0928)"
             id="g897">
            <path
               inkscape:connector-curvature="0"
               id="path899"
               style="fill:#ffffff;fill-opacity:1;fill-rule:nonzero;stroke:none"
               d="m 0,0 c 0,-0.808 0.125,-1.549 0.377,-2.226 0.251,-0.675 0.604,-1.255 1.057,-1.74 0.452,-0.484 0.996,-0.862 1.629,-1.135 0.634,-0.272 1.323,-0.408 2.068,-0.408 0.744,0 1.434,0.136 2.068,0.408 0.634,0.273 1.181,0.651 1.645,1.135 0.463,0.485 0.824,1.065 1.086,1.74 0.262,0.677 0.393,1.418 0.393,2.226 0,0.786 -0.131,1.518 -0.393,2.194 C 9.668,2.87 9.307,3.455 8.844,3.949 8.38,4.443 7.833,4.826 7.199,5.1 6.565,5.372 5.875,5.508 5.131,5.508 4.386,5.508 3.697,5.372 3.063,5.1 2.43,4.826 1.886,4.443 1.434,3.949 0.981,3.455 0.628,2.87 0.377,2.194 0.125,1.518 0,0.786 0,0 m -2.385,0.015 c 0,1.087 0.181,2.107 0.544,3.063 0.362,0.956 0.885,1.796 1.569,2.521 0.704,0.744 1.514,1.313 2.43,1.705 0.915,0.392 1.906,0.589 2.973,0.589 0.503,0 0.996,-0.066 1.479,-0.197 C 7.093,7.565 7.551,7.395 7.983,7.184 8.416,6.972 8.818,6.716 9.191,6.414 9.563,6.111 9.88,5.8 10.142,5.478 h 0.12 V 7.38 h 2.355 v -14.7 h -2.355 v 1.841 h -0.12 C 9.618,-6.154 8.899,-6.721 7.983,-7.178 7.067,-7.635 6.117,-7.863 5.131,-7.863 c -1.067,0 -2.058,0.196 -2.973,0.589 -0.916,0.391 -1.726,0.96 -2.43,1.705 -0.684,0.724 -1.207,1.564 -1.569,2.52 -0.363,0.955 -0.544,1.977 -0.544,3.064" />
          </g>
          <g
             transform="translate(269.9839,201.4727)"
             id="g901">
            <path
               inkscape:connector-curvature="0"
               id="path903"
               style="fill:#ffffff;fill-opacity:1;fill-rule:nonzero;stroke:none"
               d="M 0,0 H 2.143 V 5.735 H 4.528 V 0 H 8.331 V -2.385 H 4.528 v -7.908 c 0,-0.603 0.185,-1.092 0.558,-1.464 0.372,-0.373 0.85,-0.558 1.434,-0.558 H 8.331 V -14.7 H 6.309 c -1.248,0 -2.254,0.378 -3.019,1.132 -0.765,0.755 -1.147,1.755 -1.147,3.004 v 8.179 H 0 Z" />
          </g>
          <g
             transform="translate(288.064,188.6143)"
             id="g905">
            <path
               inkscape:connector-curvature="0"
               id="path907"
               style="fill:#ffffff;fill-opacity:1;fill-rule:nonzero;stroke:none"
               d="m 0,0 c 0.905,0 1.725,0.19 2.46,0.573 0.734,0.382 1.333,0.915 1.796,1.6 L 6.127,0.694 C 5.443,-0.272 4.573,-1.026 3.517,-1.57 2.46,-2.113 1.288,-2.385 0,-2.385 c -1.086,0 -2.093,0.201 -3.019,0.604 -0.925,0.402 -1.731,0.956 -2.414,1.66 -0.685,0.704 -1.218,1.534 -1.6,2.49 -0.383,0.955 -0.573,1.997 -0.573,3.124 0,1.107 0.19,2.143 0.573,3.11 0.382,0.965 0.915,1.799 1.6,2.504 0.683,0.705 1.489,1.257 2.414,1.661 0.926,0.402 1.933,0.603 3.019,0.603 1.288,0 2.46,-0.276 3.517,-0.83 1.056,-0.554 1.926,-1.312 2.61,-2.278 L 4.256,8.813 C 3.793,9.478 3.194,10.006 2.46,10.398 1.725,10.79 0.905,10.986 0,10.986 c -0.765,0 -1.464,-0.135 -2.098,-0.407 C -2.731,10.308 -3.28,9.925 -3.743,9.433 -4.206,8.938 -4.568,8.355 -4.83,7.682 -5.091,7.007 -5.222,6.278 -5.222,5.493 -5.222,4.688 -5.091,3.948 -4.83,3.274 -4.568,2.601 -4.206,2.022 -3.743,1.539 -3.28,1.056 -2.731,0.679 -2.098,0.407 -1.464,0.136 -0.765,0 0,0" />
          </g>
          <g
             transform="translate(303.7598,201.9854)"
             id="g909">
            <path
               inkscape:connector-curvature="0"
               id="path911"
               style="fill:#ffffff;fill-opacity:1;fill-rule:nonzero;stroke:none"
               d="M 0,0 C 0.543,0 1.172,-0.075 1.887,-0.227 2.601,-0.377 3.27,-0.685 3.894,-1.146 4.517,-1.61 5.045,-2.289 5.479,-3.185 5.911,-4.08 6.127,-5.263 6.127,-6.73 v -8.483 H 3.743 v 8.483 c 0,0.924 -0.141,1.674 -0.423,2.248 -0.282,0.573 -0.629,1.015 -1.041,1.328 -0.413,0.311 -0.85,0.517 -1.313,0.619 -0.463,0.1 -0.886,0.15 -1.268,0.15 -0.543,0 -1.061,-0.09 -1.554,-0.271 C -2.35,-2.837 -2.777,-3.108 -3.139,-3.471 -3.501,-3.833 -3.788,-4.291 -4,-4.845 -4.21,-5.398 -4.316,-6.057 -4.316,-6.821 v -8.392 H -6.701 V 7.214 h 2.385 v -9.326 h 0.09 c 0.423,0.643 1.006,1.156 1.751,1.539 C -1.731,-0.191 -0.905,0 0,0" />
          </g>
          <g
             transform="translate(324.2539,195.7676)"
             id="g913">
            <path
               inkscape:connector-curvature="0"
               id="path915"
               style="fill:#ffffff;fill-opacity:1;fill-rule:nonzero;stroke:none"
               d="m 0,0 c -0.181,1.006 -0.594,1.841 -1.237,2.505 -0.846,0.886 -1.922,1.328 -3.23,1.328 -1.207,0 -2.239,-0.352 -3.094,-1.056 C -8.417,2.072 -8.985,1.146 -9.267,0 Z M 0.513,4.135 C 1.217,3.391 1.736,2.521 2.068,1.524 2.4,0.528 2.536,-0.554 2.475,-1.721 c -0.02,-0.1 -0.03,-0.211 -0.03,-0.332 0,-0.12 -0.01,-0.231 -0.03,-0.332 H -9.448 c 0.081,-0.704 0.267,-1.348 0.559,-1.931 0.291,-0.584 0.664,-1.087 1.117,-1.509 0.453,-0.423 0.976,-0.75 1.569,-0.982 0.594,-0.231 1.243,-0.346 1.947,-0.346 0.905,0 1.725,0.19 2.46,0.573 0.734,0.382 1.333,0.915 1.796,1.6 L 1.872,-6.459 C 1.187,-7.426 0.317,-8.18 -0.739,-8.724 c -1.057,-0.543 -2.229,-0.814 -3.517,-0.814 -1.086,0 -2.093,0.201 -3.018,0.603 -0.926,0.403 -1.731,0.956 -2.415,1.661 -0.685,0.704 -1.218,1.534 -1.6,2.49 -0.382,0.955 -0.573,1.997 -0.573,3.124 0,1.087 0.175,2.107 0.528,3.063 0.352,0.956 0.87,1.796 1.555,2.521 0.683,0.744 1.483,1.313 2.399,1.705 0.916,0.392 1.886,0.589 2.913,0.589 0.966,0 1.876,-0.181 2.732,-0.543 0.855,-0.363 1.604,-0.876 2.248,-1.54" />
          </g>
          <g
             transform="translate(334.1846,186.2295)"
             id="g917">
            <path
               inkscape:connector-curvature="0"
               id="path919"
               style="fill:#ffffff;fill-opacity:1;fill-rule:nonzero;stroke:none"
               d="m 0,0 c -2.415,0 -4.427,1.016 -6.037,3.049 l 1.902,1.478 C -3.029,3.099 -1.65,2.385 0,2.385 0.322,2.385 0.689,2.419 1.102,2.49 1.514,2.561 1.901,2.717 2.264,2.958 2.887,3.36 3.179,3.934 3.139,4.679 3.119,5.322 2.807,5.835 2.204,6.218 1.881,6.419 1.499,6.585 1.057,6.716 0.614,6.847 0.11,6.973 -0.453,7.093 -1.942,7.415 -3.049,7.867 -3.773,8.451 -4.035,8.673 -4.266,8.914 -4.467,9.176 -4.668,9.438 -4.83,9.709 -4.95,9.991 c -0.242,0.604 -0.332,1.238 -0.272,1.902 0.04,0.583 0.216,1.136 0.528,1.66 0.312,0.522 0.73,0.955 1.253,1.298 0.442,0.281 0.941,0.503 1.494,0.664 0.553,0.161 1.152,0.241 1.796,0.241 1.087,0 2.103,-0.222 3.048,-0.664 0.866,-0.423 1.61,-1.036 2.234,-1.841 L 3.26,11.802 c -0.805,1.046 -1.942,1.569 -3.411,1.569 -0.805,0 -1.459,-0.171 -1.962,-0.513 -0.141,-0.1 -0.292,-0.241 -0.452,-0.422 -0.162,-0.181 -0.263,-0.433 -0.303,-0.755 -0.02,-0.564 0.181,-1.016 0.604,-1.358 C -1.841,9.961 -1.067,9.659 0.061,9.417 0.744,9.256 1.368,9.095 1.932,8.935 2.495,8.773 3.008,8.542 3.471,8.24 3.793,8.039 4.07,7.822 4.301,7.591 4.532,7.359 4.739,7.104 4.92,6.821 5.302,6.197 5.503,5.523 5.523,4.799 5.564,4.034 5.408,3.31 5.056,2.626 4.704,1.941 4.206,1.378 3.562,0.936 2.596,0.312 1.408,0 0,0" />
          </g>
        </g>
      </g>
      <g
         id="g921">
        <g
           clip-path="url(#clipPath927)"
           id="g923">
          <g
             transform="translate(587.709,199.6309)"
             id="g929" />
          <g
             transform="translate(634.5635,201.498)"
             id="g933" />
          <g
             transform="translate(633.7197,207.3931)"
             id="g937" />
          <g
             transform="translate(670.5879,201.498)"
             id="g941" />
          <g
             transform="translate(669.7432,207.3926)"
             id="g945" />
          <g
             transform="translate(646.7959,201.498)"
             id="g949" />
          <g
             transform="translate(682.4609,201.498)"
             id="g953" />
          <g
             transform="translate(628.5645,209.2593)"
             id="g957" />
          <g
             transform="translate(657.9756,188.6064)"
             id="g961" />
        </g>
      </g>
      <g
         id="g965">
        <g
           clip-path="url(#clipPath971)"
           id="g967">
          <g
             transform="translate(698.3232,186.7725)"
             id="g973" />
          <g
             transform="translate(717.792,194.0928)"
             id="g977" />
          <g
             transform="translate(733.1553,201.4727)"
             id="g981" />
          <g
             transform="translate(751.2344,188.6143)"
             id="g985" />
          <g
             transform="translate(766.9307,201.9854)"
             id="g989" />
          <g
             transform="translate(787.4248,195.7676)"
             id="g993" />
          <g
             transform="translate(797.3545,186.2295)"
             id="g997" />
          <g
             transform="translate(176.4961,243.9668)"
             id="g1001">
            <path
               inkscape:connector-curvature="0"
               id="path1003"
               style="fill:#ffffff;fill-opacity:1;fill-rule:nonzero;stroke:none"
               d="M 0,0 H 2.475 L 4.65,-7.11 7.005,0.03 h 1.98 L 11.34,-7.11 13.515,0 h 2.415 l -3.585,-10.575 h -2.01 l -2.37,6.87 -2.37,-6.87 h -2.01 z" />
          </g>
          <g
             transform="translate(198.936,235.417)"
             id="g1005">
            <path
               inkscape:connector-curvature="0"
               id="path1007"
               style="fill:#ffffff;fill-opacity:1;fill-rule:nonzero;stroke:none"
               d="M 0,0 C 0.459,0 0.885,0.084 1.275,0.255 1.665,0.425 1.997,0.66 2.272,0.96 2.547,1.26 2.762,1.607 2.917,2.002 3.072,2.397 3.15,2.82 3.15,3.27 V 3.3 c 0,0.45 -0.078,0.875 -0.233,1.275 -0.155,0.4 -0.375,0.75 -0.66,1.05 C 1.972,5.925 1.635,6.162 1.245,6.337 0.855,6.512 0.43,6.6 -0.03,6.6 -0.5,6.6 -0.928,6.515 -1.312,6.345 -1.698,6.175 -2.028,5.94 -2.303,5.64 -2.578,5.34 -2.792,4.992 -2.948,4.597 -3.103,4.202 -3.18,3.78 -3.18,3.33 V 3.3 c 0,-0.45 0.077,-0.875 0.232,-1.275 0.156,-0.4 0.375,-0.75 0.66,-1.05 0.286,-0.3 0.621,-0.538 1.005,-0.713 C -0.898,0.087 -0.47,0 0,0 m -0.03,-2.13 c -0.81,0 -1.555,0.142 -2.235,0.427 -0.68,0.286 -1.268,0.67 -1.763,1.155 -0.494,0.485 -0.88,1.055 -1.155,1.71 C -5.458,1.817 -5.595,2.52 -5.595,3.27 V 3.3 c 0,0.75 0.14,1.452 0.42,2.107 0.279,0.655 0.667,1.23 1.162,1.725 0.495,0.495 1.085,0.885 1.77,1.17 C -1.558,8.587 -0.81,8.73 0,8.73 0.81,8.73 1.555,8.587 2.235,8.302 2.915,8.017 3.502,7.632 3.998,7.147 4.492,6.662 4.877,6.092 5.152,5.437 5.427,4.782 5.565,4.08 5.565,3.33 V 3.3 C 5.565,2.55 5.425,1.847 5.145,1.192 4.865,0.537 4.478,-0.038 3.982,-0.533 3.487,-1.028 2.897,-1.417 2.212,-1.703 1.527,-1.988 0.78,-2.13 -0.03,-2.13" />
          </g>
          <g
             transform="translate(211.4014,238.8667)"
             id="g1009">
            <path
               inkscape:connector-curvature="0"
               id="path1011"
               style="fill:#ffffff;fill-opacity:1;fill-rule:nonzero;stroke:none"
               d="m 0,0 c 0.57,0 1.007,0.135 1.312,0.405 0.305,0.27 0.458,0.63 0.458,1.08 v 0.03 C 1.77,2.015 1.61,2.39 1.29,2.64 0.97,2.89 0.525,3.015 -0.045,3.015 H -2.34 V 0 Z m -4.65,5.1 h 4.8 c 1.329,0 2.35,-0.355 3.06,-1.065 0.6,-0.6 0.9,-1.4 0.9,-2.4 V 1.605 C 4.11,0.755 3.902,0.062 3.487,-0.472 3.072,-1.007 2.53,-1.4 1.86,-1.65 L 4.425,-5.4 h -2.7 l -2.25,3.36 H -0.555 -2.34 V -5.4 h -2.31 z" />
          </g>
          <g
             transform="translate(217.8652,243.9668)"
             id="g1013">
            <path
               inkscape:connector-curvature="0"
               id="path1015"
               style="fill:#ffffff;fill-opacity:1;fill-rule:nonzero;stroke:none"
               d="M 0,0 H 2.31 V -4.59 L 6.57,0 H 9.36 L 5.085,-4.455 9.555,-10.5 H 6.78 L 3.525,-6.03 2.31,-7.29 V -10.5 H 0 Z" />
          </g>
          <g
             transform="translate(232.6704,233.3169)"
             id="g1017">
            <path
               inkscape:connector-curvature="0"
               id="path1019"
               style="fill:#ffffff;fill-opacity:1;fill-rule:nonzero;stroke:none"
               d="m 0,0 c -0.8,0 -1.585,0.138 -2.355,0.413 -0.77,0.274 -1.47,0.697 -2.1,1.267 l 1.365,1.635 c 0.48,-0.39 0.973,-0.7 1.478,-0.93 0.505,-0.23 1.057,-0.345 1.657,-0.345 0.48,0 0.852,0.087 1.118,0.262 C 1.428,2.477 1.56,2.72 1.56,3.03 V 3.06 C 1.56,3.21 1.533,3.342 1.478,3.458 1.422,3.572 1.317,3.68 1.162,3.78 1.006,3.88 0.791,3.98 0.515,4.08 0.239,4.18 -0.119,4.285 -0.561,4.395 -1.092,4.525 -1.573,4.67 -2.004,4.83 -2.436,4.99 -2.801,5.187 -3.102,5.422 -3.403,5.657 -3.636,5.95 -3.802,6.3 -3.967,6.65 -4.05,7.085 -4.05,7.605 v 0.03 c 0,0.48 0.09,0.912 0.268,1.298 0.179,0.384 0.43,0.717 0.753,0.997 0.323,0.28 0.709,0.495 1.157,0.645 0.448,0.15 0.942,0.225 1.482,0.225 0.77,0 1.478,-0.115 2.123,-0.345 0.645,-0.23 1.237,-0.56 1.777,-0.99 L 2.31,7.725 C 1.84,8.045 1.38,8.297 0.93,8.482 0.48,8.667 0.03,8.76 -0.42,8.76 -0.87,8.76 -1.207,8.672 -1.432,8.498 -1.657,8.322 -1.77,8.105 -1.77,7.845 v -0.03 c 0,-0.17 0.033,-0.317 0.098,-0.442 0.065,-0.126 0.183,-0.238 0.354,-0.338 0.17,-0.1 0.403,-0.195 0.699,-0.285 C -0.323,6.66 0.05,6.555 0.501,6.435 1.033,6.295 1.506,6.137 1.922,5.962 2.338,5.787 2.689,5.577 2.976,5.333 3.261,5.087 3.477,4.8 3.622,4.47 3.768,4.14 3.84,3.745 3.84,3.285 V 3.255 C 3.84,2.735 3.746,2.272 3.557,1.867 3.368,1.462 3.105,1.123 2.767,0.847 2.429,0.572 2.026,0.362 1.558,0.217 1.089,0.073 0.57,0 0,0" />
          </g>
          <g
             transform="translate(242.4956,243.9668)"
             id="g1021">
            <path
               inkscape:connector-curvature="0"
               id="path1023"
               style="fill:#ffffff;fill-opacity:1;fill-rule:nonzero;stroke:none"
               d="M 0,0 H 2.475 L 4.65,-7.11 7.005,0.03 h 1.98 L 11.34,-7.11 13.515,0 h 2.415 l -3.585,-10.575 h -2.01 l -2.37,6.87 -2.37,-6.87 h -2.01 z" />
          </g>
          <path
             inkscape:connector-curvature="0"
             id="path1025"
             style="fill:#ffffff;fill-opacity:1;fill-rule:nonzero;stroke:none"
             d="m 260.241,243.967 h 2.31 v -10.5 h -2.31 z" />
          <g
             transform="translate(267.6055,241.8369)"
             id="g1027">
            <path
               inkscape:connector-curvature="0"
               id="path1029"
               style="fill:#ffffff;fill-opacity:1;fill-rule:nonzero;stroke:none"
               d="m 0,0 h -3.195 v 2.13 h 8.7 V 0 H 2.31 V -8.37 H 0 Z" />
          </g>
          <g
             transform="translate(274.9102,243.9668)"
             id="g1031">
            <path
               inkscape:connector-curvature="0"
               id="path1033"
               style="fill:#ffffff;fill-opacity:1;fill-rule:nonzero;stroke:none"
               d="M 0,0 H 2.31 V -4.155 H 6.57 V 0 H 8.88 V -10.5 H 6.57 v 4.215 H 2.31 V -10.5 H 0 Z" />
          </g>
          <g
             transform="translate(639.666,243.9668)"
             id="g1035" />
          <g
             transform="translate(662.1055,235.417)"
             id="g1039" />
          <g
             transform="translate(674.5713,238.8667)"
             id="g1043" />
          <g
             transform="translate(681.0352,243.9668)"
             id="g1047" />
          <g
             transform="translate(695.8408,233.3169)"
             id="g1051" />
          <g
             transform="translate(705.6807,243.9668)"
             id="g1055" />
          <g
             transform="translate(730.791,241.8369)"
             id="g1061" />
          <g
             transform="translate(738.0947,243.9668)"
             id="g1065" />
        </g>
      </g>
    </g>
  </g>
</svg>
