<svg xmlns="http://www.w3.org/2000/svg" xmlns:xlink="http://www.w3.org/1999/xlink" width="360" height="360" viewBox="0 0 360 360"><defs><linearGradient id="a" x1="0.5" x2="0.5" y2="1" gradientUnits="objectBoundingBox"><stop offset="0" stop-color="#4b4078"/><stop offset="1" stop-color="#674ec2"/></linearGradient><clipPath id="c"><rect width="360" height="360"/></clipPath></defs><g id="b" clip-path="url(#c)"><path d="M-258.614,223.482c-.067-1.674-.357-7.7-1.39-15.935a176.093,176.093,0,0,0-7.518-34.128A166.162,166.162,0,0,0-282.4,142.5c-2.828-4.655-5.3-8.3-6.9-10.57-2.575-.207-8.527-.61-15.726-.61a148.486,148.486,0,0,0-15.35.73,151.68,151.68,0,0,0-29.565,6.456c-.481.042-.967.063-1.446.063q-.545,0-1.087-.036a6.849,6.849,0,0,1-.67.912l-.279.32-.167.39c-.027.061-2.7,6.226-7.28,14.547-4.21,7.642-10.94,18.722-19.1,28.114a151.27,151.27,0,0,1-24.4,21.946c-7.22,5.266-12.57,8.338-12.623,8.369l-.4.23-.3.35a6.842,6.842,0,0,1-9.641.674l-4.125-3.586a6.844,6.844,0,0,1-.976-9.27,142.818,142.818,0,0,0,12.942-7.868,136.069,136.069,0,0,0,25.8-22.36c8.517-9.8,15.292-21.565,19.476-29.712,3.87-7.534,6.253-13.327,6.927-15.014l.1-.1a16.465,16.465,0,0,1-.471-2.469c-.028-2.546-.489-39.073-4.1-73.391-3.6-34.219-10.412-67.1-10.931-69.587q-.074-.758-.078-1.512a6.831,6.831,0,0,1-.92-1.132l-.292-.45-.44-.306a151.232,151.232,0,0,1-13.07-10.6,162.533,162.533,0,0,1-11.954-11.889,120.827,120.827,0,0,1-11.67-15.025,125.785,125.785,0,0,1-9.145-17.048c-2.277-5.087-4.4-10.564-6.314-16.279a172.473,172.473,0,0,1-4.791-16.886l-.105-.5-.276-.425a6.841,6.841,0,0,1,2.009-9.453l4.584-2.977a6.843,6.843,0,0,1,9.173,1.609,178.929,178.929,0,0,0,4.555,17.432c2.974,9.516,8.128,23.336,15.794,35.143,7.679,11.823,17.813,21.531,24.962,27.592,2.88,2.442,5.5,4.493,7.67,6.114a16.448,16.448,0,0,1,4.916-1.3l13.522-1.421,2.21-.233.223-2.211A14.963,14.963,0,0,1-351-45.1l1.22-2.853-2.984-.851a36.633,36.633,0,0,1-10.7-5.029,37.055,37.055,0,0,1-8.482-8.044,36.786,36.786,0,0,1-5.58-10.377,36.836,36.836,0,0,1-2.008-12.044,36.66,36.66,0,0,1,2.9-14.363,36.748,36.748,0,0,1,7.909-11.729A36.771,36.771,0,0,1-357-118.3a36.681,36.681,0,0,1,14.363-2.9,36.681,36.681,0,0,1,14.363,2.9,36.785,36.785,0,0,1,11.729,7.909,36.764,36.764,0,0,1,7.909,11.73,36.66,36.66,0,0,1,2.9,14.363,36.853,36.853,0,0,1-5.129,18.78,37.115,37.115,0,0,1-13.463,13.268l-2.691,1.54,1.866,2.476a14.958,14.958,0,0,1,2.3,4.429l.68,2.114,2.209-.232,12.36-1.3a8.447,8.447,0,0,1,1.169-2.016S-285.879-61-270.506-80.682s25.564-43.262,25.564-43.262c3.048-3.9,8.894-4.427,13.058-1.173l4.308,3.366c4.163,3.253,5.068,9.052,2.019,12.953,0,0-11.694,23.495-27.067,43.173s-34.426,35.537-34.426,35.537a8.445,8.445,0,0,1-1.791,1.707v.007A687.237,687.237,0,0,1-277.4,41.155c3.691,35.121,3.5,72.2,3.493,72.567v.152l.017.152a16.35,16.35,0,0,1-.751,6.925,6.791,6.791,0,0,1,1.952,2.908l.1.279.153.253c.032.052,3.25,5.35,7.394,13.393a239.844,239.844,0,0,1,13.292,30.55,247.234,247.234,0,0,1,8.445,32.583c1.74,9.049,2.52,15.364,2.527,15.426l.034.286.094.273a6.843,6.843,0,0,1-4.236,8.686l-5.169,1.78a6.808,6.808,0,0,1-2.219.373A6.848,6.848,0,0,1-258.614,223.482Z" transform="translate(513.697 129.945)" stroke="#674ec2" stroke-linejoin="round" stroke-width="4" fill="url(#a)"/></g></svg>